# xmcd CD database file
#
# Track frame offsets:
#	150
#	12645
#	28678
#	43221
#	60900
#	83549
#	99567
#	119083
#	137295
#	159221
#	180459
#	201240
#
# Disc length: 2866 seconds
#
# Revision: 0
# Processed by: cddbd v1.5.1PL2 Copyright (c) Steve Scherf et al.
# Submitted via: CDex 1.51
#
DISCID=950b300c
DTITLE=Tessa Lee - Warm Orange Glow
DYEAR=2005
DGENRE=Jazz
TTITLE0=Born Yesterday
TTITLE1=Softly
TTITLE2=Wings
TTITLE3=Headed For Disaster
TTITLE4=Not The Only Way
TTITLE5=Simple
TTITLE6=Out of the Night
TTITLE7=Something Good
TTITLE8=Miss You
TTITLE9=Forget-Me-Nots
TTITLE10=On My Side
TTITLE11=Here's to Starting
EXTD=YEAR: 2005
EXTT0=
EXTT1=
EXTT2=
EXTT3=
EXTT4=
EXTT5=
EXTT6=
EXTT7=
EXTT8=
EXTT9=
EXTT10=
EXTT11=
PLAYORDER=
